<svg width="24" height="24" viewBox="0 0 24 24" fill="none" xmlns="http://www.w3.org/2000/svg">
<path d="M10.2656 20.9951C10.4411 21.2991 10.6936 21.5516 10.9976 21.7271C11.3017 21.9026 11.6465 21.995 11.9976 21.995C12.3487 21.995 12.6935 21.9026 12.9976 21.7271C13.3016 21.5516 13.5541 21.2991 13.7296 20.9951" stroke="#364153" stroke-width="1.99953" stroke-linecap="round" stroke-linejoin="round"/>
<path d="M3.26124 15.3224C3.13063 15.4656 3.04444 15.6436 3.01315 15.8348C2.98186 16.0261 3.00682 16.2223 3.08499 16.3996C3.16316 16.5769 3.29117 16.7277 3.45345 16.8335C3.61573 16.9394 3.80529 16.9959 3.99907 16.996H19.9953C20.1891 16.9961 20.3787 16.9399 20.5411 16.8342C20.7035 16.7285 20.8316 16.5779 20.91 16.4007C20.9884 16.2235 21.0136 16.0273 20.9825 15.8361C20.9515 15.6448 20.8656 15.4667 20.7352 15.3234C19.4055 13.9527 17.9958 12.4961 17.9958 7.99813C17.9958 6.4072 17.3638 4.88144 16.2389 3.75648C15.1139 2.63153 13.5881 1.99953 11.9972 1.99953C10.4063 1.99953 8.88051 2.63153 7.75555 3.75648C6.63059 4.88144 5.9986 6.4072 5.9986 7.99813C5.9986 12.4961 4.58793 13.9527 3.26124 15.3224Z" stroke="#364153" stroke-width="1.99953" stroke-linecap="round" stroke-linejoin="round"/>
</svg>
