<svg width="16" height="16" viewBox="0 0 16 16" fill="none" xmlns="http://www.w3.org/2000/svg">
<path d="M2.66604 10.6641V9.07783C2.66604 7.66484 1.97953 6.99833 1.99953 5.33206C2.01952 3.51916 2.99263 1.33301 4.99882 1.33301C6.24519 1.33301 6.66509 2.53272 6.66509 3.66579C6.66509 5.73863 5.33207 7.43822 5.33207 9.45108V10.6641C5.33207 11.0177 5.19163 11.3567 4.94164 11.6067C4.69165 11.8567 4.35259 11.9971 3.99905 11.9971C3.64552 11.9971 3.30646 11.8567 3.05647 11.6067C2.80648 11.3567 2.66604 11.0177 2.66604 10.6641Z" stroke="#4A5565" stroke-width="1.33302" stroke-linecap="round" stroke-linejoin="round"/>
<path d="M13.3302 13.3301V11.7439C13.3302 10.3309 14.0167 9.66434 13.9967 7.99807C13.9767 6.18517 13.0036 3.99902 10.9974 3.99902C9.75102 3.99902 9.33112 5.19874 9.33112 6.3318C9.33112 8.40464 10.6641 10.1042 10.6641 12.1171V13.3301C10.6641 13.6837 10.8046 14.0227 11.0546 14.2727C11.3046 14.5227 11.6436 14.6632 11.9971 14.6632C12.3507 14.6632 12.6897 14.5227 12.9397 14.2727C13.1897 14.0227 13.3302 13.6837 13.3302 13.3301Z" stroke="#4A5565" stroke-width="1.33302" stroke-linecap="round" stroke-linejoin="round"/>
<path d="M10.6641 11.3307H13.3302" stroke="#4A5565" stroke-width="1.33302" stroke-linecap="round" stroke-linejoin="round"/>
<path d="M2.66603 8.66455H5.33206" stroke="#4A5565" stroke-width="1.33302" stroke-linecap="round" stroke-linejoin="round"/>
</svg>
